<?xml version="1.0" encoding="utf-8"?>
<!-- Generator: Adobe Illustrator 15.0.0, SVG Export Plug-In . SVG Version: 6.00 Build 0)  -->
<!DOCTYPE svg PUBLIC "-//W3C//DTD SVG 1.1//EN" "http://www.w3.org/Graphics/SVG/1.1/DTD/svg11.dtd">
<svg version="1.1" id="Layer_1" xmlns="http://www.w3.org/2000/svg" xmlns:xlink="http://www.w3.org/1999/xlink" x="0px" y="0px"
	 width="16px" height="16px" viewBox="0 0 16 16" enable-background="new 0 0 16 16" xml:space="preserve">
<path fill="#989898" d="M2.043,9.662c0-0.44-0.132-0.777-0.397-1.011c-0.161-0.143-0.391-0.257-0.691-0.34V7.679
	c0.338-0.115,0.578-0.242,0.717-0.382C1.92,7.056,2.043,6.688,2.043,6.192V4.791c0-0.178,0.03-0.364,0.089-0.56
	c0.104-0.339,0.281-0.606,0.532-0.806c0.23-0.181,0.499-0.302,0.809-0.36c0.188-0.039,0.457-0.06,0.809-0.063v0.837
	C3.994,3.901,3.798,3.985,3.695,4.09c-0.16,0.16-0.24,0.44-0.24,0.841v1.212c0,0.391-0.052,0.7-0.156,0.931
	C3.12,7.459,2.772,7.772,2.252,8.013c0.47,0.192,0.787,0.415,0.949,0.669c0.162,0.254,0.247,0.606,0.253,1.056v1.321
	c0,0.387,0.094,0.666,0.281,0.836c0.104,0.101,0.286,0.19,0.546,0.267v0.837l-0.371-0.011c-0.498-0.014-0.933-0.163-1.308-0.447
	c-0.374-0.284-0.561-0.698-0.561-1.242V9.662z"/>
<path fill="#989898" d="M6.567,4.236c0.412-0.266,0.917-0.398,1.517-0.398c0.788,0,1.443,0.188,1.963,0.565
	c0.522,0.377,0.782,0.935,0.782,1.674c0,0.453-0.111,0.835-0.339,1.146c-0.132,0.188-0.385,0.429-0.762,0.722L9.36,8.232
	c-0.203,0.156-0.338,0.34-0.402,0.549C8.915,8.914,8.893,9.12,8.889,9.399H7.471c0.021-0.59,0.078-0.997,0.168-1.223
	C7.729,7.952,7.962,7.693,8.337,7.4l0.381-0.299c0.127-0.094,0.227-0.196,0.303-0.308c0.141-0.192,0.209-0.403,0.209-0.633
	c0-0.265-0.078-0.507-0.232-0.725S8.56,5.109,8.149,5.109c-0.404,0-0.689,0.134-0.859,0.403C7.122,5.78,7.037,6.06,7.037,6.349
	h-1.51C5.568,5.355,5.915,4.65,6.567,4.236z M7.436,10.115h1.563v1.512H7.436V10.115z"/>
<path fill="#989898" d="M11.924,12.998v-0.837c0.261-0.076,0.443-0.168,0.548-0.271c0.179-0.175,0.271-0.451,0.277-0.831V9.737
	c0-0.495,0.097-0.861,0.289-1.1c0.193-0.238,0.499-0.446,0.92-0.625c-0.46-0.223-0.775-0.476-0.948-0.76s-0.261-0.653-0.261-1.11
	V4.931c0-0.386-0.062-0.649-0.185-0.788c-0.125-0.14-0.339-0.241-0.641-0.304V3.002c0.349,0.004,0.618,0.024,0.807,0.063
	c0.311,0.059,0.583,0.18,0.817,0.36c0.235,0.182,0.396,0.405,0.488,0.67c0.091,0.265,0.136,0.497,0.136,0.695v1.401
	c0,0.499,0.113,0.865,0.341,1.099c0.14,0.14,0.388,0.269,0.747,0.388v0.633c-0.296,0.083-0.521,0.191-0.674,0.324
	c-0.276,0.237-0.414,0.579-0.414,1.026v1.636c0,0.53-0.183,0.94-0.549,1.232c-0.367,0.291-0.811,0.443-1.328,0.457L11.924,12.998z"
	/>
</svg>
